<svg id="Capa_1" enable-background="new 0 0 511.919 511.919" height="512" viewBox="0 0 511.919 511.919" width="512" xmlns="http://www.w3.org/2000/svg"><g><path d="m457.827 183.742c-.958-.655-96.1-65.735-118.373-82.308-20.516-15.264-41.18-19.342-63.173-12.464-15.515 4.853-29.506 14.538-43.401 25.413-13.896-10.875-27.887-20.56-43.401-25.413-21.994-6.878-42.656-2.801-63.174 12.464-22.274 16.573-117.414 81.653-118.372 82.308-3.83 2.619-5.355 7.529-3.684 11.857.567 1.47 14.273 36.429 46.411 73.278 40.926 46.927 93.303 75.295 151.889 82.373v150.668c0 5.523 4.478 10 10 10h91.212c5.522 0 10-4.477 10-10v-162.282c55.122-19.44 92.007-56.71 113.419-84.932 23.771-31.331 33.944-58.071 34.365-59.194 1.618-4.311.083-9.169-3.718-11.768zm-164.066 308.177h-71.212v-57.894h16.489c5.522 0 10-4.477 10-10s-4.478-10-10-10h-16.489v-23.66h16.489c5.522 0 10-4.477 10-10s-4.478-10-10-10h-16.489v-66.554h17.038c19.818 0 35.941-16.123 35.941-35.941v-12.127c11.815 6.92 18.232 21.808 18.232 38.376v197.8zm-71.212-208.107v-60.934h5.06c15.396 0 27.92 12.524 27.92 27.919v17.073c0 8.79-7.151 15.941-15.941 15.941h-17.039zm85.442-19.682c-6.899-17.241-19.67-26.879-36.592-36.027-.667-.36-1.356-.636-2.056-.833-8.235-14.55-23.857-24.391-41.735-24.391h-15.06c-5.522 0-10 4.477-10 10v65.517c-34.85-5.86-64.906-22.504-91.615-50.671-5.057-5.333-9.917-11.053-14.516-17.078 27.979-19.301 60.541-41.924 73.027-51.214l.155-.115c.412-.302.987-.338 1.436-.093 7.312 4.031 18.573 13.065 22.813 16.466 11.026 8.846 24.889 13.717 39.031 13.717 14.144 0 28.005-4.872 39.031-13.718 7.4-5.937 15.152-12.032 21.445-15.605.564-.32 1.088-.604 1.572-.854.4-.207.881-.171 1.231.087l.089.067c12.58 9.36 45.323 32.106 73.419 51.486-4.544 6.008-9.356 11.711-14.375 17.029-15.004 15.899-30.556 27.821-47.3 36.23zm5.77 54.172v-24.182c0-3.453-.22-6.873-.649-10.242 20.338-9.545 38.955-23.42 56.727-42.251 7.892-8.362 15.31-17.575 22.022-27.345 1.552-2.237 2.139-4.944 1.652-7.623-.486-2.679-1.987-5.007-4.244-6.569-29.486-20.308-67.489-46.639-81.134-56.791-.029-.022-.06-.045-.09-.067-6.423-4.747-15.171-5.445-22.282-1.778-.701.362-1.457.77-2.277 1.235-7.581 4.305-16.058 10.956-24.09 17.399-15.363 12.326-37.667 12.327-53.032.001-5.041-4.044-16.848-13.516-25.671-18.379-7.277-4.013-16.294-3.415-22.938 1.493l-.184.135c-13.566 10.094-51.424 36.326-80.799 56.559-2.244 1.548-3.749 3.877-4.238 6.558-.488 2.681.098 5.391 1.657 7.639 6.821 9.813 14.301 19.028 22.229 27.392 30.678 32.353 65.465 51.106 106.129 57.162v32.452c-52.999-6.904-98.833-32.05-136.356-74.842-21.715-24.764-34.599-49.042-40.112-60.702 22.52-15.428 92.86-63.713 112.164-78.076 32.07-23.863 56.861-7.813 88.378 17.47 3.656 2.933 8.859 2.933 12.516 0 31.517-25.282 56.306-41.333 88.378-17.47 19.319 14.375 89.767 62.731 112.224 78.117-10.413 22.467-48.067 92.177-125.98 122.705z"/><path d="m380.132 85.24c5.522 0 10-4.477 10-10v-22.552h23.621v22.552c0 5.523 4.478 10 10 10s10-4.477 10-10v-62.945c0-5.523-4.478-10-10-10s-10 4.477-10 10v20.393h-23.621v-20.393c0-5.523-4.478-10-10-10s-10 4.477-10 10v62.945c0 5.523 4.477 10 10 10z"/><path d="m498.343 2.295c-5.522 0-10 4.477-10 10v20.393h-23.621v-20.393c0-5.523-4.478-10-10-10s-10 4.477-10 10v62.945c0 5.523 4.478 10 10 10s10-4.477 10-10v-22.552h23.621v22.552c0 5.523 4.478 10 10 10s10-4.477 10-10v-62.945c0-5.523-4.478-10-10-10z"/><path d="m331.301 82.864c14.318 0 26.352-9.208 28.614-21.893 1.716-9.625-2.554-22.158-19.685-28.467-7.365-2.713-14.248-5.659-16.741-6.745-.624-.619-.679-1.39-.596-1.969.215-1.493 1.498-2.698 3.523-3.307 7.854-2.362 15.339 3.567 15.414 3.627 4.046 3.037 9.76 2.381 13.012-1.494l.137-.163c3.622-4.315 2.698-10.776-1.926-13.993-10.103-7.03-20.941-10.573-32.398-7.128-9.505 2.859-16.233 10.377-17.559 19.619-1.251 8.72 2.536 17.109 9.884 21.892.441.288.905.54 1.387.754.367.164 9.109 4.049 18.951 7.674 3.634 1.338 7.356 3.667 6.907 6.189-.389 2.179-3.494 5.404-8.925 5.404-5.606 0-10.982-2.205-14.427-5.906-3.62-3.89-9.699-4.549-13.826-1.202-4.498 3.648-4.957 10.268-1.118 14.497 7.274 8.015 17.979 12.611 29.372 12.611z"/></g></svg>